<svg xmlns="http://www.w3.org/2000/svg" width="326" height="319" fill="none">
    <path stroke="#75BFB9" stroke-width="3" d="M20.235 159.878c-14.682-20.92-6.311-50.573 17.088-60.891 21.092-9.302 45.166-20.601 63.694-31.227 19.875-11.397 43.476-27.815 63.186-42.234 20.387-14.914 49.816-7.694 60.74 15.056 10.039 20.906 22.092 44.991 32.835 63.686 11.724 20.404 28.11 45.213 42.122 65.695 13.84 20.228 6.294 48.388-15.805 58.986-22.376 10.732-48.971 24.024-69.327 35.832-19.001 11.022-41.977 26.209-61.354 39.473-20.503 14.033-49.084 6.081-59.498-16.487-9.74-21.104-21.6-45.569-32.387-64.411-11.332-19.794-27.275-43.502-41.294-63.478Z"/>
    <path stroke="#75BFB9" stroke-width="3" d="M40.855 229.656c-23.175-10.776-30.752-40.641-15.647-61.277 13.616-18.602 28.815-40.424 39.548-58.89C76.27 89.681 88.5 63.662 98.36 41.319c10.198-23.108 39.294-31.57 60.13-17.33 19.147 13.086 41.627 27.918 60.278 38.737 20.356 11.807 46.951 25.1 69.327 35.831 22.099 10.599 29.645 38.758 15.805 58.987-14.012 20.481-30.398 45.29-42.122 65.694-10.945 19.046-23.249 43.687-33.398 64.862-10.739 22.405-39.468 29.808-59.771 15.471-18.986-13.407-41.49-28.664-60.253-39.588-19.711-11.476-45.371-24.037-67.5-34.327Z"/>
    <path stroke="#75BFB9" stroke-width="3" d="M34.272 160.85c-13.227-18.846-5.685-45.563 15.396-54.859 19.078-8.414 40.857-18.636 57.622-28.25 17.983-10.312 39.334-25.165 57.162-38.207 18.367-13.437 44.881-6.93 54.722 13.563 9.08 18.91 19.983 40.697 29.702 57.611 10.607 18.459 25.429 40.901 38.104 59.427 12.467 18.222 5.669 43.592-14.239 53.14-20.239 9.706-44.297 21.73-62.712 32.413-17.191 9.971-37.975 23.71-55.501 35.707-18.47 12.642-44.22 5.478-53.603-14.854-8.808-19.088-19.537-41.22-29.297-58.267-10.253-17.908-24.675-39.355-37.356-57.424Z"/>
    <circle cx="6" cy="170" r="6" fill="#75BFB9"/>
    <circle cx="320" cy="165" r="6" fill="#75BFB9"/>
    <circle cx="163" cy="4" r="4" fill="#75BFB9"/>
    <circle cx="163" cy="315" r="4" fill="#75BFB9"/>
    <path stroke="#75BFB9" stroke-width="3" d="m122.018 95.5 85 1M122.018 107.5l85 1M122.018 222.5l85 1M122.018 234.5l85 1"/>
    <path fill="#BC66BD" d="M86.876 162v-26.182h16.236v3.401H90.827v7.977h11.122v3.388H90.827V162h-3.95Zm25.69-26.182V162h-3.823v-26.182h3.823Zm14.685 26.578c-1.934 0-3.601-.413-4.998-1.24-1.39-.835-2.463-2.007-3.222-3.515-.75-1.517-1.125-3.294-1.125-5.331 0-2.012.375-3.784 1.125-5.319.759-1.534 1.815-2.731 3.171-3.592 1.363-.861 2.957-1.291 4.781-1.291 1.108 0 2.182.183 3.221.55a7.786 7.786 0 0 1 2.8 1.726c.827.784 1.479 1.802 1.956 3.055.477 1.244.716 2.757.716 4.538v1.355h-15.609v-2.863h11.863c0-1.006-.204-1.897-.613-2.672a4.646 4.646 0 0 0-1.726-1.854c-.733-.452-1.594-.677-2.583-.677-1.073 0-2.011.264-2.812.792a5.32 5.32 0 0 0-1.841 2.046 5.906 5.906 0 0 0-.639 2.723v2.237c0 1.312.23 2.429.69 3.349.469.921 1.121 1.624 1.956 2.11.835.477 1.811.716 2.928.716a6.09 6.09 0 0 0 1.981-.307 4.287 4.287 0 0 0 1.547-.946c.435-.418.767-.933.997-1.547l3.618.652a6.563 6.563 0 0 1-1.56 2.8c-.741.792-1.674 1.41-2.799 1.853-1.117.435-2.391.652-3.823.652Zm16.306-20.032 4.334 7.645 4.372-7.645h4.18l-6.123 9.818 6.175 9.818h-4.181l-4.423-7.338L143.48 162h-4.193l6.111-9.818-6.034-9.818h4.193Zm39.944 1.968h-3.989c-.153-.852-.439-1.602-.856-2.25a6.306 6.306 0 0 0-1.535-1.649 6.616 6.616 0 0 0-2.032-1.022 7.91 7.91 0 0 0-2.365-.346c-1.509 0-2.86.38-4.053 1.138-1.184.759-2.122 1.871-2.812 3.337-.682 1.466-1.023 3.255-1.023 5.369 0 2.131.341 3.929 1.023 5.395.69 1.466 1.632 2.574 2.825 3.324 1.193.75 2.536 1.125 4.027 1.125.827 0 1.611-.111 2.352-.333a6.774 6.774 0 0 0 2.033-1.009 6.123 6.123 0 0 0 2.416-3.849l3.989.013a10.69 10.69 0 0 1-1.24 3.554 9.797 9.797 0 0 1-2.34 2.787 10.565 10.565 0 0 1-3.247 1.803c-1.219.426-2.548.639-3.989.639-2.267 0-4.287-.537-6.059-1.611-1.773-1.082-3.171-2.629-4.193-4.64-1.015-2.012-1.522-4.411-1.522-7.198 0-2.795.512-5.195 1.534-7.197 1.023-2.012 2.421-3.554 4.194-4.628 1.772-1.083 3.788-1.624 6.046-1.624 1.39 0 2.685.201 3.887.601a10.26 10.26 0 0 1 3.26 1.739 9.54 9.54 0 0 1 2.39 2.787c.631 1.091 1.057 2.339 1.279 3.745ZM189.308 162v-26.182h9.332c2.028 0 3.712.35 5.05 1.048 1.346.699 2.352 1.667 3.017 2.902.665 1.228.997 2.647.997 4.258 0 1.602-.337 3.012-1.01 4.231-.665 1.21-1.67 2.152-3.017 2.825-1.338.674-3.021 1.01-5.05 1.01h-7.069v-3.4h6.711c1.279 0 2.319-.183 3.12-.55.809-.366 1.402-.899 1.777-1.598.375-.699.562-1.538.562-2.518 0-.989-.192-1.846-.575-2.57-.375-.724-.967-1.278-1.777-1.662-.801-.392-1.854-.588-3.158-.588h-4.96V162h-3.95Zm12.924-11.812L208.701 162h-4.5l-6.341-11.812h4.372Zm11.359-14.37h4.794l8.335 20.352h.307l8.335-20.352h4.794V162h-3.758v-18.946h-.243l-7.722 18.908h-3.119l-7.722-18.921h-.243V162h-3.758v-26.182ZM113.287 176.818a1.67 1.67 0 0 0-.778-1.257c-.454-.298-1.012-.447-1.672-.447-.483 0-.906.078-1.268.234a2.022 2.022 0 0 0-.842.645 1.542 1.542 0 0 0-.298.932c0 .291.069.541.208.751.142.206.323.378.543.516.22.135.451.247.693.336.241.085.463.155.665.208l1.108.298c.284.075.6.178.948.309.352.131.688.311 1.007.538.323.224.59.511.799.863.21.352.314.783.314 1.294 0 .59-.154 1.123-.463 1.598-.305.476-.753.854-1.342 1.135-.586.28-1.298.421-2.136.421-.782 0-1.458-.126-2.03-.378-.568-.253-1.015-.604-1.342-1.055a3.015 3.015 0 0 1-.549-1.571h1.364c.035.411.174.752.415 1.022.245.267.554.465.927.597a3.75 3.75 0 0 0 1.215.192 3.58 3.58 0 0 0 1.358-.245c.401-.167.719-.398.954-.693.234-.298.351-.646.351-1.044 0-.362-.101-.657-.304-.884a2.22 2.22 0 0 0-.799-.554 8.325 8.325 0 0 0-1.07-.373l-1.343-.384c-.852-.245-1.527-.594-2.024-1.049-.497-.454-.745-1.049-.745-1.784 0-.611.165-1.144.495-1.598a3.292 3.292 0 0 1 1.342-1.066c.565-.255 1.195-.383 1.891-.383.703 0 1.328.126 1.875.378.547.249.98.589 1.3 1.023.323.433.494.925.511 1.475h-1.278Zm8.585 4.837v-4.837h1.257V185h-1.257v-1.385h-.085a2.68 2.68 0 0 1-.895 1.06c-.405.288-.916.432-1.534.432-.511 0-.966-.112-1.364-.336-.397-.227-.71-.568-.937-1.023-.227-.458-.341-1.035-.341-1.731v-5.199h1.257v5.114c0 .596.167 1.072.501 1.427.337.355.767.533 1.289.533.312 0 .63-.08.953-.24.327-.159.6-.404.821-.735.223-.33.335-.751.335-1.262Zm3.56 6.413v-11.25h1.214v1.3h.149c.093-.142.221-.323.384-.543.167-.224.405-.423.714-.597.312-.178.735-.266 1.268-.266.688 0 1.296.172 1.821.516.526.345.936.833 1.231 1.465.294.632.442 1.378.442 2.237 0 .867-.148 1.618-.442 2.254-.295.632-.703 1.122-1.225 1.47-.522.344-1.124.516-1.806.516-.526 0-.947-.087-1.263-.261a2.332 2.332 0 0 1-.729-.601 8.372 8.372 0 0 1-.395-.565h-.106v4.325h-1.257Zm1.236-7.159c0 .618.09 1.163.271 1.635.181.469.446.837.794 1.103.348.263.774.394 1.278.394.526 0 .964-.138 1.316-.415.355-.281.622-.657.799-1.13a4.43 4.43 0 0 0 .272-1.587c0-.575-.089-1.094-.267-1.555-.174-.466-.438-.833-.793-1.103-.352-.273-.794-.41-1.327-.41-.511 0-.941.13-1.289.389-.348.255-.61.614-.788 1.076-.178.458-.266.992-.266 1.603Zm11.335 4.261c-.789 0-1.469-.174-2.04-.522a3.5 3.5 0 0 1-1.316-1.47c-.305-.632-.458-1.367-.458-2.205 0-.838.153-1.577.458-2.216.309-.643.739-1.143 1.289-1.502.554-.362 1.2-.543 1.939-.543.426 0 .847.071 1.262.213.416.142.794.373 1.135.692.341.316.613.735.815 1.257.202.522.304 1.165.304 1.929v.532h-6.307v-1.086h5.028c0-.462-.092-.874-.277-1.236a2.093 2.093 0 0 0-.777-.858c-.334-.209-.728-.314-1.183-.314-.501 0-.934.124-1.3.373a2.446 2.446 0 0 0-.836.959 2.817 2.817 0 0 0-.293 1.267v.725c0 .618.107 1.141.32 1.571.216.426.516.751.9.975.383.22.829.33 1.337.33.33 0 .628-.046.895-.138.27-.096.502-.238.698-.426.195-.192.346-.43.452-.714l1.215.341a2.688 2.688 0 0 1-.645 1.086 3.14 3.14 0 0 1-1.118.725 4.16 4.16 0 0 1-1.497.255Zm5.3-.17v-8.182h1.214v1.236h.086c.149-.405.419-.733.809-.985a2.378 2.378 0 0 1 1.321-.379 12.407 12.407 0 0 1 .661.022v1.278a3.427 3.427 0 0 0-.293-.048 2.865 2.865 0 0 0-.474-.037c-.398 0-.753.083-1.066.25a1.894 1.894 0 0 0-.735.682 1.842 1.842 0 0 0-.266.985V185h-1.257Zm9.97 0v-10.909h6.541v1.172h-5.22v3.686h4.73v1.172h-4.73V185h-1.321Zm9.891-10.909V185h-1.258v-10.909h1.258Zm5.732 11.079c-.788 0-1.468-.174-2.04-.522a3.497 3.497 0 0 1-1.315-1.47c-.306-.632-.459-1.367-.459-2.205 0-.838.153-1.577.459-2.216.309-.643.738-1.143 1.289-1.502.554-.362 1.2-.543 1.939-.543.426 0 .847.071 1.262.213a3.14 3.14 0 0 1 1.135.692c.34.316.612.735.815 1.257.202.522.303 1.165.303 1.929v.532h-6.307v-1.086h5.029a2.69 2.69 0 0 0-.277-1.236 2.095 2.095 0 0 0-.778-.858c-.334-.209-.728-.314-1.182-.314-.501 0-.934.124-1.3.373a2.446 2.446 0 0 0-.836.959 2.804 2.804 0 0 0-.293 1.267v.725c0 .618.106 1.141.319 1.571.217.426.517.751.9.975.384.22.83.33 1.337.33.331 0 .629-.046.895-.138.27-.096.503-.238.698-.426a1.95 1.95 0 0 0 .453-.714l1.214.341a2.686 2.686 0 0 1-.644 1.086 3.144 3.144 0 0 1-1.119.725 4.16 4.16 0 0 1-1.497.255Zm6.018-8.352 1.96 3.345 1.961-3.345h1.449l-2.642 4.091 2.642 4.091h-1.449l-1.961-3.175-1.96 3.175h-1.449l2.6-4.091-2.6-4.091h1.449Zm20.331.682h-1.321a2.742 2.742 0 0 0-1.113-1.726 2.975 2.975 0 0 0-.911-.447 3.62 3.62 0 0 0-1.044-.149c-.661 0-1.259.166-1.795.5-.533.334-.957.826-1.273 1.476-.313.65-.469 1.447-.469 2.391 0 .945.156 1.742.469 2.392.316.65.74 1.142 1.273 1.476.536.333 1.134.5 1.795.5.362 0 .71-.049 1.044-.149.334-.099.637-.247.911-.442a2.801 2.801 0 0 0 1.113-1.731h1.321a4.418 4.418 0 0 1-.543 1.497 4.11 4.11 0 0 1-.98 1.124c-.391.305-.83.538-1.316.697a4.9 4.9 0 0 1-1.55.24c-.931 0-1.758-.227-2.483-.682-.724-.454-1.294-1.101-1.709-1.939-.416-.838-.624-1.832-.624-2.983 0-1.15.208-2.144.624-2.983.415-.838.985-1.484 1.709-1.938.725-.455 1.552-.682 2.483-.682.55 0 1.067.08 1.55.239.486.16.925.395 1.316.704.39.305.717.678.98 1.118.262.437.444.936.543 1.497Zm2.135 7.5v-10.909h3.686c.852 0 1.552.146 2.098.437.547.287.952.683 1.215 1.188.263.504.394 1.077.394 1.72s-.131 1.213-.394 1.71c-.263.497-.666.888-1.209 1.172-.544.28-1.238.421-2.083.421h-2.983v-1.194h2.94c.583 0 1.052-.085 1.407-.255.358-.171.618-.412.777-.725.164-.316.245-.692.245-1.129 0-.437-.081-.818-.245-1.145a1.67 1.67 0 0 0-.783-.757c-.358-.181-.832-.271-1.422-.271h-2.322V185h-1.321Zm5.135-4.901 2.684 4.901h-1.534l-2.642-4.901h1.492Zm4.459-6.008h1.577l3.707 9.055h.128l3.708-9.055h1.576V185h-1.235v-8.288h-.107L212.919 185h-1.193l-3.409-8.288h-.107V185h-1.236v-10.909Z"/>
</svg>